<svg xmlns="http://www.w3.org/2000/svg" width="212.335" height="42.605" viewBox="0 0 212.335 42.605"><g transform="translate(-199 -15)"><path d="M127.21,34.144V11H134.8V28.8h10.457v5.308Zm38.517,0v-.234a2.123,2.123,0,0,1-.924-2.123V23.931c0-3.981-.531-7.049-8.493-7.049-6.657,0-9.141,2.123-9.141,5.691h6.37c.149-1.454,1.465-1.6,2.389-1.6.679,0,2.123.149,2.123,1.316,0,3.185-11.965-.244-11.965,7.294,0,3.45,2.782,5.054,5.988,5.054a8.865,8.865,0,0,0,6.37-2.23l.244,1.847h7.049ZM155.111,30.79c-1.316,0-2.123-.531-2.123-1.454,0-2.123,2.92-1.7,5.064-2.771.287,2.378-.488,4.247-2.92,4.247M166.173,17.3H172.3v2.675a6.625,6.625,0,0,1,5.648-3.089c4.374,0,6.519,2.675,6.519,7.156V34.144H177.8v-8.9c0-1.7-.393-3.185-2.378-3.185s-2.675,1.316-2.675,3.45v8.61h-6.667V17.274Zm38.316,16.849V11.074h-6.614v7.973a5.839,5.839,0,0,0-5.054-2.123c-3.992,0-7.156,3.6-7.156,9.141,0,4.767,2.527,8.61,7.686,8.61a5.775,5.775,0,0,0,5.16-2.771v2.24ZM194.934,29.9c-2.123,0-2.675-1.985-2.675-3.843s.679-3.981,2.771-3.981,2.92,2,2.92,3.843-.626,3.981-3.015,3.981" transform="translate(206.846 15.678)" fill="#c8102e"/><path d="M0,7.38H127.4V42.15H0Z" transform="translate(199 15.455)" fill="#7f7f7e"/><path d="M28,11.678,36.907,0H44.2L35.432,11.678Z" transform="translate(200.727 15)" fill="#c8102e"/><path d="M46.9,26.91c.149-6.126-3.695-10.5-9.969-10.5-5.446,0-9.672,3.6-9.672,9.141s4.247,8.9,9.672,8.9c3.992,0,8.217-1.454,9.438-5.6H39.9a2.622,2.622,0,0,1-2.537,1.465,3.281,3.281,0,0,1-3.3-3.312H46.954v-.1ZM34.065,23.481c0-1.847,1.21-2.92,3.185-2.92a3.185,3.185,0,0,1,3.089,2.92ZM48.5,16.962V39.8h6.763V32.367a5.308,5.308,0,0,0,4.374,2.123c3.843,0,7.984-2.389,7.984-9.152,0-4.661-2.527-8.9-7.591-8.9a5.669,5.669,0,0,0-5.308,3.068V16.994c.053-.053-6.221-.053-6.221-.053Zm9.268,12.326c-1.7,0-2.771-1.6-2.771-3.981s1.062-3.843,2.771-3.843,2.92,1.316,2.92,3.992c0,2.23-1.062,3.833-2.92,3.833M69.228,16.941V39.8h6.763V32.367a5.308,5.308,0,0,0,4.374,2.123c3.843,0,7.973-2.389,7.973-9.152,0-4.661-2.527-8.9-7.58-8.9a5.68,5.68,0,0,0-5.308,3.068V16.994c0-.053-6.221-.053-6.221-.053Zm9.438,12.347c-1.709,0-2.782-1.6-2.782-3.981s1.062-3.843,2.782-3.843,2.909,1.316,2.909,3.992c0,2.23-1.168,3.833-2.909,3.833M109.2,26.91c.149-6.126-3.695-10.5-9.969-10.5-5.446,0-9.672,3.6-9.672,9.141s4.247,8.9,9.672,8.9c3.992,0,8.217-1.454,9.438-5.6H102.15a2.59,2.59,0,0,1-2.527,1.465,3.291,3.291,0,0,1-3.312-3.312H109.2ZM96.311,23.481c0-1.847,1.221-2.92,3.185-2.92a3.185,3.185,0,0,1,3.089,2.92Z" transform="translate(200.682 16.012)" fill="#fff"/><path d="M112.43,10.91h6.763V34.267H112.43ZM13.9,21.527l7.952-10.521H29.28L21.339,21.7l7.686,12.5H21.488ZM7.24,11.154h6.519v23.1H7.24Z" transform="translate(199.447 15.673)" fill="#fff"/></g></svg>